# Blender v2.92.0 OBJ File: 'ito.blend'
# www.blender.org
mtllib ito.mtl
o Cube
v 0.203525 0.015494 -0.019257
v 0.203525 -0.015494 -0.019257
v 0.203525 0.015494 0.019318
v 0.203525 -0.015494 0.019318
v -0.000004 0.015494 -0.019257
v -0.000004 -0.015494 -0.019257
v -0.000004 0.015494 0.019318
v -0.000004 -0.015494 0.019318
vt 0.333333 0.333333
vt 0.666667 0.333333
vt 0.666667 0.666667
vt 0.333333 0.666667
vt 1.000000 0.333333
vt 0.666667 0.333333
vt 0.666667 0.000000
vt 1.000000 0.000000
vt 0.333333 0.333333
vt 0.333333 0.666667
vt 0.000000 0.666667
vt 0.000000 0.333333
vt 0.333333 0.000000
vt 0.666667 0.000000
vt 0.666667 0.333333
vt 0.333333 0.000000
vt 0.000000 0.333333
vt 0.000000 0.000000
vt 0.333333 1.000000
vt 0.000000 1.000000
vt 0.000000 0.666667
vt 0.333333 0.666667
vn 0.0000 1.0000 0.0000
vn 0.0000 0.0000 1.0000
vn -1.0000 0.0000 0.0000
vn 0.0000 -1.0000 0.0000
vn 1.0000 0.0000 0.0000
vn 0.0000 0.0000 -1.0000
usemtl Material
s off
f 1/1/1 5/2/1 7/3/1 3/4/1
f 4/5/2 3/6/2 7/7/2 8/8/2
f 8/9/3 7/10/3 5/11/3 6/12/3
f 6/13/4 2/14/4 4/15/4 8/9/4
f 2/16/5 1/1/5 3/17/5 4/18/5
f 6/19/6 5/20/6 1/21/6 2/22/6
